<svg xmlns="http://www.w3.org/2000/svg" width="1280" height="800" viewBox="0 0 1280 800" fill="none">
  <rect width="1280" height="800" rx="24" fill="#0B0B0B"/>
  <rect x="40" y="40" width="1200" height="720" rx="20" fill="#121212" stroke="#1F1F1F"/>
  <rect x="72" y="72" width="300" height="200" rx="12" fill="#0F0F0F" stroke="#2A2A2A"/>
  <rect x="392" y="72" width="356" height="200" rx="12" fill="#0F0F0F" stroke="#2A2A2A"/>
  <rect x="760" y="72" width="356" height="200" rx="12" fill="#0F0F0F" stroke="#2A2A2A"/>
  <rect x="72" y="292" width="1044" height="176" rx="12" fill="#0F0F0F" stroke="#2A2A2A"/>
  <rect x="72" y="488" width="516" height="240" rx="12" fill="#0F0F0F" stroke="#2A2A2A"/>
  <rect x="600" y="488" width="516" height="240" rx="12" fill="#0F0F0F" stroke="#2A2A2A"/>
  <g opacity="0.9">
    <text x="92" y="104" fill="#E4048B" font-family="Inter, Arial" font-size="20" font-weight="700">Pipeline Stages</text>
    <text x="412" y="104" fill="#E4048B" font-family="Inter, Arial" font-size="20" font-weight="700">Tasks Due Today</text>
    <text x="780" y="104" fill="#E4048B" font-family="Inter, Arial" font-size="20" font-weight="700">Unified Inbox</text>
    <text x="92" y="324" fill="#E4048B" font-family="Inter, Arial" font-size="20" font-weight="700">Deals by Stage</text>
    <text x="92" y="520" fill="#E4048B" font-family="Inter, Arial" font-size="20" font-weight="700">Revenue Forecast</text>
    <text x="620" y="520" fill="#E4048B" font-family="Inter, Arial" font-size="20" font-weight="700">Activity Feed</text>
  </g>
  <g>
    <rect x="92" y="344" width="240" height="20" rx="10" fill="#1A1A1A"/>
    <rect x="92" y="372" width="400" height="20" rx="10" fill="#1A1A1A"/>
    <rect x="92" y="400" width="320" height="20" rx="10" fill="#1A1A1A"/>
    <rect x="92" y="428" width="280" height="20" rx="10" fill="#1A1A1A"/>
    <rect x="92" y="456" width="360" height="20" rx="10" fill="#1A1A1A"/>
    <rect x="92" y="344" width="180" height="20" rx="10" fill="#E4048B"/>
    <rect x="92" y="372" width="340" height="20" rx="10" fill="#E4048B"/>
    <rect x="92" y="400" width="220" height="20" rx="10" fill="#E4048B"/>
    <rect x="92" y="428" width="180" height="20" rx="10" fill="#E4048B"/>
    <rect x="92" y="456" width="300" height="20" rx="10" fill="#E4048B"/>
  </g>
  <g>
    <path d="M112 700 C 180 640, 280 620, 360 660 S 520 740, 580 700" stroke="#E4048B" stroke-width="4" fill="none"/>
    <path d="M112 716 C 180 656, 280 636, 360 676 S 520 756, 580 716" stroke="#3B3B3B" stroke-width="3" fill="none"/>
  </g>
  <g>
    <circle cx="640" cy="560" r="8" fill="#E4048B"/>
    <rect x="660" y="552" width="420" height="16" rx="8" fill="#1A1A1A"/>
    <rect x="660" y="552" width="220" height="16" rx="8" fill="#E4048B"/>
    <circle cx="640" cy="592" r="8" fill="#E4048B"/>
    <rect x="660" y="584" width="420" height="16" rx="8" fill="#1A1A1A"/>
    <rect x="660" y="584" width="320" height="16" rx="8" fill="#E4048B"/>
    <circle cx="640" cy="624" r="8" fill="#E4048B"/>
    <rect x="660" y="616" width="420" height="16" rx="8" fill="#1A1A1A"/>
    <rect x="660" y="616" width="280" height="16" rx="8" fill="#E4048B"/>
  </g>
</svg>