<svg xmlns="http://www.w3.org/2000/svg" width="1280" height="480" viewBox="0 0 1280 480" fill="none">
  <rect width="1280" height="480" rx="24" fill="#0B0B0B"/>
  <g font-family="Inter, Arial" font-size="18" font-weight="700" fill="#E4048B">
    <text x="80" y="64">Welcome</text>
    <text x="320" y="64">Value</text>
    <text x="560" y="64">Reminder</text>
    <text x="800" y="64">Social Proof</text>
    <text x="1040" y="64">Final Ask</text>
  </g>
  <g stroke="#2A2A2A">
    <rect x="60" y="80" width="180" height="180" rx="16" fill="#121212"/>
    <rect x="300" y="80" width="180" height="180" rx="16" fill="#121212"/>
    <rect x="540" y="80" width="180" height="180" rx="16" fill="#121212"/>
    <rect x="780" y="80" width="180" height="180" rx="16" fill="#121212"/>
    <rect x="1020" y="80" width="180" height="180" rx="16" fill="#121212"/>
  </g>
  <g>
    <path d="M240 170 L300 170" stroke="#E4048B" stroke-width="4"/>
    <path d="M480 170 L540 170" stroke="#E4048B" stroke-width="4"/>
    <path d="M720 170 L780 170" stroke="#E4048B" stroke-width="4"/>
    <path d="M960 170 L1020 170" stroke="#E4048B" stroke-width="4"/>
    <circle cx="300" cy="170" r="6" fill="#E4048B"/>
    <circle cx="540" cy="170" r="6" fill="#E4048B"/>
    <circle cx="780" cy="170" r="6" fill="#E4048B"/>
    <circle cx="1020" cy="170" r="6" fill="#E4048B"/>
  </g>
  <g fill="#1A1A1A">
    <rect x="84" y="110" width="132" height="16" rx="8"/>
    <rect x="324" y="110" width="132" height="16" rx="8"/>
    <rect x="564" y="110" width="132" height="16" rx="8"/>
    <rect x="804" y="110" width="132" height="16" rx="8"/>
    <rect x="1044" y="110" width="132" height="16" rx="8"/>
    <rect x="84" y="138" width="100" height="12" rx="6"/>
    <rect x="324" y="138" width="100" height="12" rx="6"/>
    <rect x="564" y="138" width="100" height="12" rx="6"/>
    <rect x="804" y="138" width="100" height="12" rx="6"/>
    <rect x="1044" y="138" width="100" height="12" rx="6"/>
  </g>
  <g fill="#E4048B" opacity="0.9">
    <rect x="84" y="210" width="80" height="10" rx="5"/>
    <rect x="324" y="210" width="96" height="10" rx="5"/>
    <rect x="564" y="210" width="72" height="10" rx="5"/>
    <rect x="804" y="210" width="88" height="10" rx="5"/>
    <rect x="1044" y="210" width="104" height="10" rx="5"/>
  </g>
</svg>